<mxfile host="app.diagrams.net" agent="Mozilla/5.0 (Windows NT 10.0; Win64; x64) AppleWebKit/537.36 (KHTML, like Gecko) Chrome/133.0.0.0 Safari/537.36" version="26.0.16">
  <diagram name="Page-1" id="RsiagYroh7UY_uWVJlXf">
    <mxGraphModel dx="2462" dy="943" grid="1" gridSize="10" guides="1" tooltips="1" connect="1" arrows="1" fold="1" page="1" pageScale="1" pageWidth="850" pageHeight="1100" math="0" shadow="0">
      <root>
        <mxCell id="0" />
        <mxCell id="1" parent="0" />
        <mxCell id="Q76sP8cnPLgWwebVLIvH-1" value="USUARIO" style="shape=table;startSize=25;container=1;collapsible=0;childLayout=tableLayout;fixedRows=1;rowLines=1;fontStyle=1;align=center;resizeLast=1;" vertex="1" parent="1">
          <mxGeometry x="151" y="20" width="178" height="377" as="geometry" />
        </mxCell>
        <mxCell id="Q76sP8cnPLgWwebVLIvH-2" style="shape=tableRow;horizontal=0;startSize=0;swimlaneHead=0;swimlaneBody=0;fillColor=none;collapsible=0;dropTarget=0;points=[[0,0.5],[1,0.5]];portConstraint=eastwest;top=0;left=0;right=0;bottom=0;" vertex="1" parent="Q76sP8cnPLgWwebVLIvH-1">
          <mxGeometry y="25" width="178" height="22" as="geometry" />
        </mxCell>
        <mxCell id="Q76sP8cnPLgWwebVLIvH-3" value="int" style="shape=partialRectangle;connectable=0;fillColor=none;top=0;left=0;bottom=0;right=0;align=left;spacingLeft=2;overflow=hidden;fontSize=11;" vertex="1" parent="Q76sP8cnPLgWwebVLIvH-2">
          <mxGeometry width="54" height="22" as="geometry">
            <mxRectangle width="54" height="22" as="alternateBounds" />
          </mxGeometry>
        </mxCell>
        <mxCell id="Q76sP8cnPLgWwebVLIvH-4" value="id" style="shape=partialRectangle;connectable=0;fillColor=none;top=0;left=0;bottom=0;right=0;align=left;spacingLeft=2;overflow=hidden;fontSize=11;" vertex="1" parent="Q76sP8cnPLgWwebVLIvH-2">
          <mxGeometry x="54" width="102" height="22" as="geometry">
            <mxRectangle width="102" height="22" as="alternateBounds" />
          </mxGeometry>
        </mxCell>
        <mxCell id="Q76sP8cnPLgWwebVLIvH-5" value="PK" style="shape=partialRectangle;connectable=0;fillColor=none;top=0;left=0;bottom=0;right=0;align=left;spacingLeft=2;overflow=hidden;fontSize=11;" vertex="1" parent="Q76sP8cnPLgWwebVLIvH-2">
          <mxGeometry x="156" width="22" height="22" as="geometry">
            <mxRectangle width="22" height="22" as="alternateBounds" />
          </mxGeometry>
        </mxCell>
        <mxCell id="Q76sP8cnPLgWwebVLIvH-6" style="shape=tableRow;horizontal=0;startSize=0;swimlaneHead=0;swimlaneBody=0;fillColor=none;collapsible=0;dropTarget=0;points=[[0,0.5],[1,0.5]];portConstraint=eastwest;top=0;left=0;right=0;bottom=0;" vertex="1" parent="Q76sP8cnPLgWwebVLIvH-1">
          <mxGeometry y="47" width="178" height="22" as="geometry" />
        </mxCell>
        <mxCell id="Q76sP8cnPLgWwebVLIvH-7" value="string" style="shape=partialRectangle;connectable=0;fillColor=none;top=0;left=0;bottom=0;right=0;align=left;spacingLeft=2;overflow=hidden;fontSize=11;" vertex="1" parent="Q76sP8cnPLgWwebVLIvH-6">
          <mxGeometry width="54" height="22" as="geometry">
            <mxRectangle width="54" height="22" as="alternateBounds" />
          </mxGeometry>
        </mxCell>
        <mxCell id="Q76sP8cnPLgWwebVLIvH-8" value="nome" style="shape=partialRectangle;connectable=0;fillColor=none;top=0;left=0;bottom=0;right=0;align=left;spacingLeft=2;overflow=hidden;fontSize=11;" vertex="1" parent="Q76sP8cnPLgWwebVLIvH-6">
          <mxGeometry x="54" width="102" height="22" as="geometry">
            <mxRectangle width="102" height="22" as="alternateBounds" />
          </mxGeometry>
        </mxCell>
        <mxCell id="Q76sP8cnPLgWwebVLIvH-9" value="" style="shape=partialRectangle;connectable=0;fillColor=none;top=0;left=0;bottom=0;right=0;align=left;spacingLeft=2;overflow=hidden;fontSize=11;" vertex="1" parent="Q76sP8cnPLgWwebVLIvH-6">
          <mxGeometry x="156" width="22" height="22" as="geometry">
            <mxRectangle width="22" height="22" as="alternateBounds" />
          </mxGeometry>
        </mxCell>
        <mxCell id="Q76sP8cnPLgWwebVLIvH-10" style="shape=tableRow;horizontal=0;startSize=0;swimlaneHead=0;swimlaneBody=0;fillColor=none;collapsible=0;dropTarget=0;points=[[0,0.5],[1,0.5]];portConstraint=eastwest;top=0;left=0;right=0;bottom=0;" vertex="1" parent="Q76sP8cnPLgWwebVLIvH-1">
          <mxGeometry y="69" width="178" height="22" as="geometry" />
        </mxCell>
        <mxCell id="Q76sP8cnPLgWwebVLIvH-11" value="string" style="shape=partialRectangle;connectable=0;fillColor=none;top=0;left=0;bottom=0;right=0;align=left;spacingLeft=2;overflow=hidden;fontSize=11;" vertex="1" parent="Q76sP8cnPLgWwebVLIvH-10">
          <mxGeometry width="54" height="22" as="geometry">
            <mxRectangle width="54" height="22" as="alternateBounds" />
          </mxGeometry>
        </mxCell>
        <mxCell id="Q76sP8cnPLgWwebVLIvH-12" value="sobrenome" style="shape=partialRectangle;connectable=0;fillColor=none;top=0;left=0;bottom=0;right=0;align=left;spacingLeft=2;overflow=hidden;fontSize=11;" vertex="1" parent="Q76sP8cnPLgWwebVLIvH-10">
          <mxGeometry x="54" width="102" height="22" as="geometry">
            <mxRectangle width="102" height="22" as="alternateBounds" />
          </mxGeometry>
        </mxCell>
        <mxCell id="Q76sP8cnPLgWwebVLIvH-13" value="" style="shape=partialRectangle;connectable=0;fillColor=none;top=0;left=0;bottom=0;right=0;align=left;spacingLeft=2;overflow=hidden;fontSize=11;" vertex="1" parent="Q76sP8cnPLgWwebVLIvH-10">
          <mxGeometry x="156" width="22" height="22" as="geometry">
            <mxRectangle width="22" height="22" as="alternateBounds" />
          </mxGeometry>
        </mxCell>
        <mxCell id="Q76sP8cnPLgWwebVLIvH-14" style="shape=tableRow;horizontal=0;startSize=0;swimlaneHead=0;swimlaneBody=0;fillColor=none;collapsible=0;dropTarget=0;points=[[0,0.5],[1,0.5]];portConstraint=eastwest;top=0;left=0;right=0;bottom=0;" vertex="1" parent="Q76sP8cnPLgWwebVLIvH-1">
          <mxGeometry y="91" width="178" height="22" as="geometry" />
        </mxCell>
        <mxCell id="Q76sP8cnPLgWwebVLIvH-15" value="string" style="shape=partialRectangle;connectable=0;fillColor=none;top=0;left=0;bottom=0;right=0;align=left;spacingLeft=2;overflow=hidden;fontSize=11;" vertex="1" parent="Q76sP8cnPLgWwebVLIvH-14">
          <mxGeometry width="54" height="22" as="geometry">
            <mxRectangle width="54" height="22" as="alternateBounds" />
          </mxGeometry>
        </mxCell>
        <mxCell id="Q76sP8cnPLgWwebVLIvH-16" value="telefone" style="shape=partialRectangle;connectable=0;fillColor=none;top=0;left=0;bottom=0;right=0;align=left;spacingLeft=2;overflow=hidden;fontSize=11;" vertex="1" parent="Q76sP8cnPLgWwebVLIvH-14">
          <mxGeometry x="54" width="102" height="22" as="geometry">
            <mxRectangle width="102" height="22" as="alternateBounds" />
          </mxGeometry>
        </mxCell>
        <mxCell id="Q76sP8cnPLgWwebVLIvH-17" value="" style="shape=partialRectangle;connectable=0;fillColor=none;top=0;left=0;bottom=0;right=0;align=left;spacingLeft=2;overflow=hidden;fontSize=11;" vertex="1" parent="Q76sP8cnPLgWwebVLIvH-14">
          <mxGeometry x="156" width="22" height="22" as="geometry">
            <mxRectangle width="22" height="22" as="alternateBounds" />
          </mxGeometry>
        </mxCell>
        <mxCell id="Q76sP8cnPLgWwebVLIvH-18" style="shape=tableRow;horizontal=0;startSize=0;swimlaneHead=0;swimlaneBody=0;fillColor=none;collapsible=0;dropTarget=0;points=[[0,0.5],[1,0.5]];portConstraint=eastwest;top=0;left=0;right=0;bottom=0;" vertex="1" parent="Q76sP8cnPLgWwebVLIvH-1">
          <mxGeometry y="113" width="178" height="22" as="geometry" />
        </mxCell>
        <mxCell id="Q76sP8cnPLgWwebVLIvH-19" value="string" style="shape=partialRectangle;connectable=0;fillColor=none;top=0;left=0;bottom=0;right=0;align=left;spacingLeft=2;overflow=hidden;fontSize=11;" vertex="1" parent="Q76sP8cnPLgWwebVLIvH-18">
          <mxGeometry width="54" height="22" as="geometry">
            <mxRectangle width="54" height="22" as="alternateBounds" />
          </mxGeometry>
        </mxCell>
        <mxCell id="Q76sP8cnPLgWwebVLIvH-20" value="email" style="shape=partialRectangle;connectable=0;fillColor=none;top=0;left=0;bottom=0;right=0;align=left;spacingLeft=2;overflow=hidden;fontSize=11;" vertex="1" parent="Q76sP8cnPLgWwebVLIvH-18">
          <mxGeometry x="54" width="102" height="22" as="geometry">
            <mxRectangle width="102" height="22" as="alternateBounds" />
          </mxGeometry>
        </mxCell>
        <mxCell id="Q76sP8cnPLgWwebVLIvH-21" value="" style="shape=partialRectangle;connectable=0;fillColor=none;top=0;left=0;bottom=0;right=0;align=left;spacingLeft=2;overflow=hidden;fontSize=11;" vertex="1" parent="Q76sP8cnPLgWwebVLIvH-18">
          <mxGeometry x="156" width="22" height="22" as="geometry">
            <mxRectangle width="22" height="22" as="alternateBounds" />
          </mxGeometry>
        </mxCell>
        <mxCell id="Q76sP8cnPLgWwebVLIvH-22" style="shape=tableRow;horizontal=0;startSize=0;swimlaneHead=0;swimlaneBody=0;fillColor=none;collapsible=0;dropTarget=0;points=[[0,0.5],[1,0.5]];portConstraint=eastwest;top=0;left=0;right=0;bottom=0;" vertex="1" parent="Q76sP8cnPLgWwebVLIvH-1">
          <mxGeometry y="135" width="178" height="22" as="geometry" />
        </mxCell>
        <mxCell id="Q76sP8cnPLgWwebVLIvH-23" value="string" style="shape=partialRectangle;connectable=0;fillColor=none;top=0;left=0;bottom=0;right=0;align=left;spacingLeft=2;overflow=hidden;fontSize=11;" vertex="1" parent="Q76sP8cnPLgWwebVLIvH-22">
          <mxGeometry width="54" height="22" as="geometry">
            <mxRectangle width="54" height="22" as="alternateBounds" />
          </mxGeometry>
        </mxCell>
        <mxCell id="Q76sP8cnPLgWwebVLIvH-24" value="senha_hash" style="shape=partialRectangle;connectable=0;fillColor=none;top=0;left=0;bottom=0;right=0;align=left;spacingLeft=2;overflow=hidden;fontSize=11;" vertex="1" parent="Q76sP8cnPLgWwebVLIvH-22">
          <mxGeometry x="54" width="102" height="22" as="geometry">
            <mxRectangle width="102" height="22" as="alternateBounds" />
          </mxGeometry>
        </mxCell>
        <mxCell id="Q76sP8cnPLgWwebVLIvH-25" value="" style="shape=partialRectangle;connectable=0;fillColor=none;top=0;left=0;bottom=0;right=0;align=left;spacingLeft=2;overflow=hidden;fontSize=11;" vertex="1" parent="Q76sP8cnPLgWwebVLIvH-22">
          <mxGeometry x="156" width="22" height="22" as="geometry">
            <mxRectangle width="22" height="22" as="alternateBounds" />
          </mxGeometry>
        </mxCell>
        <mxCell id="Q76sP8cnPLgWwebVLIvH-26" style="shape=tableRow;horizontal=0;startSize=0;swimlaneHead=0;swimlaneBody=0;fillColor=none;collapsible=0;dropTarget=0;points=[[0,0.5],[1,0.5]];portConstraint=eastwest;top=0;left=0;right=0;bottom=0;" vertex="1" parent="Q76sP8cnPLgWwebVLIvH-1">
          <mxGeometry y="157" width="178" height="22" as="geometry" />
        </mxCell>
        <mxCell id="Q76sP8cnPLgWwebVLIvH-27" value="string" style="shape=partialRectangle;connectable=0;fillColor=none;top=0;left=0;bottom=0;right=0;align=left;spacingLeft=2;overflow=hidden;fontSize=11;" vertex="1" parent="Q76sP8cnPLgWwebVLIvH-26">
          <mxGeometry width="54" height="22" as="geometry">
            <mxRectangle width="54" height="22" as="alternateBounds" />
          </mxGeometry>
        </mxCell>
        <mxCell id="Q76sP8cnPLgWwebVLIvH-28" value="salt" style="shape=partialRectangle;connectable=0;fillColor=none;top=0;left=0;bottom=0;right=0;align=left;spacingLeft=2;overflow=hidden;fontSize=11;" vertex="1" parent="Q76sP8cnPLgWwebVLIvH-26">
          <mxGeometry x="54" width="102" height="22" as="geometry">
            <mxRectangle width="102" height="22" as="alternateBounds" />
          </mxGeometry>
        </mxCell>
        <mxCell id="Q76sP8cnPLgWwebVLIvH-29" value="" style="shape=partialRectangle;connectable=0;fillColor=none;top=0;left=0;bottom=0;right=0;align=left;spacingLeft=2;overflow=hidden;fontSize=11;" vertex="1" parent="Q76sP8cnPLgWwebVLIvH-26">
          <mxGeometry x="156" width="22" height="22" as="geometry">
            <mxRectangle width="22" height="22" as="alternateBounds" />
          </mxGeometry>
        </mxCell>
        <mxCell id="Q76sP8cnPLgWwebVLIvH-30" style="shape=tableRow;horizontal=0;startSize=0;swimlaneHead=0;swimlaneBody=0;fillColor=none;collapsible=0;dropTarget=0;points=[[0,0.5],[1,0.5]];portConstraint=eastwest;top=0;left=0;right=0;bottom=0;" vertex="1" parent="Q76sP8cnPLgWwebVLIvH-1">
          <mxGeometry y="179" width="178" height="22" as="geometry" />
        </mxCell>
        <mxCell id="Q76sP8cnPLgWwebVLIvH-31" value="date" style="shape=partialRectangle;connectable=0;fillColor=none;top=0;left=0;bottom=0;right=0;align=left;spacingLeft=2;overflow=hidden;fontSize=11;" vertex="1" parent="Q76sP8cnPLgWwebVLIvH-30">
          <mxGeometry width="54" height="22" as="geometry">
            <mxRectangle width="54" height="22" as="alternateBounds" />
          </mxGeometry>
        </mxCell>
        <mxCell id="Q76sP8cnPLgWwebVLIvH-32" value="data_nascimento" style="shape=partialRectangle;connectable=0;fillColor=none;top=0;left=0;bottom=0;right=0;align=left;spacingLeft=2;overflow=hidden;fontSize=11;" vertex="1" parent="Q76sP8cnPLgWwebVLIvH-30">
          <mxGeometry x="54" width="102" height="22" as="geometry">
            <mxRectangle width="102" height="22" as="alternateBounds" />
          </mxGeometry>
        </mxCell>
        <mxCell id="Q76sP8cnPLgWwebVLIvH-33" value="" style="shape=partialRectangle;connectable=0;fillColor=none;top=0;left=0;bottom=0;right=0;align=left;spacingLeft=2;overflow=hidden;fontSize=11;" vertex="1" parent="Q76sP8cnPLgWwebVLIvH-30">
          <mxGeometry x="156" width="22" height="22" as="geometry">
            <mxRectangle width="22" height="22" as="alternateBounds" />
          </mxGeometry>
        </mxCell>
        <mxCell id="Q76sP8cnPLgWwebVLIvH-34" style="shape=tableRow;horizontal=0;startSize=0;swimlaneHead=0;swimlaneBody=0;fillColor=none;collapsible=0;dropTarget=0;points=[[0,0.5],[1,0.5]];portConstraint=eastwest;top=0;left=0;right=0;bottom=0;" vertex="1" parent="Q76sP8cnPLgWwebVLIvH-1">
          <mxGeometry y="201" width="178" height="22" as="geometry" />
        </mxCell>
        <mxCell id="Q76sP8cnPLgWwebVLIvH-35" value="string" style="shape=partialRectangle;connectable=0;fillColor=none;top=0;left=0;bottom=0;right=0;align=left;spacingLeft=2;overflow=hidden;fontSize=11;" vertex="1" parent="Q76sP8cnPLgWwebVLIvH-34">
          <mxGeometry width="54" height="22" as="geometry">
            <mxRectangle width="54" height="22" as="alternateBounds" />
          </mxGeometry>
        </mxCell>
        <mxCell id="Q76sP8cnPLgWwebVLIvH-36" value="foto_perfil" style="shape=partialRectangle;connectable=0;fillColor=none;top=0;left=0;bottom=0;right=0;align=left;spacingLeft=2;overflow=hidden;fontSize=11;" vertex="1" parent="Q76sP8cnPLgWwebVLIvH-34">
          <mxGeometry x="54" width="102" height="22" as="geometry">
            <mxRectangle width="102" height="22" as="alternateBounds" />
          </mxGeometry>
        </mxCell>
        <mxCell id="Q76sP8cnPLgWwebVLIvH-37" value="" style="shape=partialRectangle;connectable=0;fillColor=none;top=0;left=0;bottom=0;right=0;align=left;spacingLeft=2;overflow=hidden;fontSize=11;" vertex="1" parent="Q76sP8cnPLgWwebVLIvH-34">
          <mxGeometry x="156" width="22" height="22" as="geometry">
            <mxRectangle width="22" height="22" as="alternateBounds" />
          </mxGeometry>
        </mxCell>
        <mxCell id="Q76sP8cnPLgWwebVLIvH-38" style="shape=tableRow;horizontal=0;startSize=0;swimlaneHead=0;swimlaneBody=0;fillColor=none;collapsible=0;dropTarget=0;points=[[0,0.5],[1,0.5]];portConstraint=eastwest;top=0;left=0;right=0;bottom=0;" vertex="1" parent="Q76sP8cnPLgWwebVLIvH-1">
          <mxGeometry y="223" width="178" height="22" as="geometry" />
        </mxCell>
        <mxCell id="Q76sP8cnPLgWwebVLIvH-39" value="string" style="shape=partialRectangle;connectable=0;fillColor=none;top=0;left=0;bottom=0;right=0;align=left;spacingLeft=2;overflow=hidden;fontSize=11;" vertex="1" parent="Q76sP8cnPLgWwebVLIvH-38">
          <mxGeometry width="54" height="22" as="geometry">
            <mxRectangle width="54" height="22" as="alternateBounds" />
          </mxGeometry>
        </mxCell>
        <mxCell id="Q76sP8cnPLgWwebVLIvH-40" value="status" style="shape=partialRectangle;connectable=0;fillColor=none;top=0;left=0;bottom=0;right=0;align=left;spacingLeft=2;overflow=hidden;fontSize=11;" vertex="1" parent="Q76sP8cnPLgWwebVLIvH-38">
          <mxGeometry x="54" width="102" height="22" as="geometry">
            <mxRectangle width="102" height="22" as="alternateBounds" />
          </mxGeometry>
        </mxCell>
        <mxCell id="Q76sP8cnPLgWwebVLIvH-41" value="" style="shape=partialRectangle;connectable=0;fillColor=none;top=0;left=0;bottom=0;right=0;align=left;spacingLeft=2;overflow=hidden;fontSize=11;" vertex="1" parent="Q76sP8cnPLgWwebVLIvH-38">
          <mxGeometry x="156" width="22" height="22" as="geometry">
            <mxRectangle width="22" height="22" as="alternateBounds" />
          </mxGeometry>
        </mxCell>
        <mxCell id="Q76sP8cnPLgWwebVLIvH-42" style="shape=tableRow;horizontal=0;startSize=0;swimlaneHead=0;swimlaneBody=0;fillColor=none;collapsible=0;dropTarget=0;points=[[0,0.5],[1,0.5]];portConstraint=eastwest;top=0;left=0;right=0;bottom=0;" vertex="1" parent="Q76sP8cnPLgWwebVLIvH-1">
          <mxGeometry y="245" width="178" height="22" as="geometry" />
        </mxCell>
        <mxCell id="Q76sP8cnPLgWwebVLIvH-43" value="string" style="shape=partialRectangle;connectable=0;fillColor=none;top=0;left=0;bottom=0;right=0;align=left;spacingLeft=2;overflow=hidden;fontSize=11;" vertex="1" parent="Q76sP8cnPLgWwebVLIvH-42">
          <mxGeometry width="54" height="22" as="geometry">
            <mxRectangle width="54" height="22" as="alternateBounds" />
          </mxGeometry>
        </mxCell>
        <mxCell id="Q76sP8cnPLgWwebVLIvH-44" value="tipo" style="shape=partialRectangle;connectable=0;fillColor=none;top=0;left=0;bottom=0;right=0;align=left;spacingLeft=2;overflow=hidden;fontSize=11;" vertex="1" parent="Q76sP8cnPLgWwebVLIvH-42">
          <mxGeometry x="54" width="102" height="22" as="geometry">
            <mxRectangle width="102" height="22" as="alternateBounds" />
          </mxGeometry>
        </mxCell>
        <mxCell id="Q76sP8cnPLgWwebVLIvH-45" value="" style="shape=partialRectangle;connectable=0;fillColor=none;top=0;left=0;bottom=0;right=0;align=left;spacingLeft=2;overflow=hidden;fontSize=11;" vertex="1" parent="Q76sP8cnPLgWwebVLIvH-42">
          <mxGeometry x="156" width="22" height="22" as="geometry">
            <mxRectangle width="22" height="22" as="alternateBounds" />
          </mxGeometry>
        </mxCell>
        <mxCell id="Q76sP8cnPLgWwebVLIvH-46" style="shape=tableRow;horizontal=0;startSize=0;swimlaneHead=0;swimlaneBody=0;fillColor=none;collapsible=0;dropTarget=0;points=[[0,0.5],[1,0.5]];portConstraint=eastwest;top=0;left=0;right=0;bottom=0;" vertex="1" parent="Q76sP8cnPLgWwebVLIvH-1">
          <mxGeometry y="267" width="178" height="22" as="geometry" />
        </mxCell>
        <mxCell id="Q76sP8cnPLgWwebVLIvH-47" value="boolean" style="shape=partialRectangle;connectable=0;fillColor=none;top=0;left=0;bottom=0;right=0;align=left;spacingLeft=2;overflow=hidden;fontSize=11;" vertex="1" parent="Q76sP8cnPLgWwebVLIvH-46">
          <mxGeometry width="54" height="22" as="geometry">
            <mxRectangle width="54" height="22" as="alternateBounds" />
          </mxGeometry>
        </mxCell>
        <mxCell id="Q76sP8cnPLgWwebVLIvH-48" value="verificacao_email" style="shape=partialRectangle;connectable=0;fillColor=none;top=0;left=0;bottom=0;right=0;align=left;spacingLeft=2;overflow=hidden;fontSize=11;" vertex="1" parent="Q76sP8cnPLgWwebVLIvH-46">
          <mxGeometry x="54" width="102" height="22" as="geometry">
            <mxRectangle width="102" height="22" as="alternateBounds" />
          </mxGeometry>
        </mxCell>
        <mxCell id="Q76sP8cnPLgWwebVLIvH-49" value="" style="shape=partialRectangle;connectable=0;fillColor=none;top=0;left=0;bottom=0;right=0;align=left;spacingLeft=2;overflow=hidden;fontSize=11;" vertex="1" parent="Q76sP8cnPLgWwebVLIvH-46">
          <mxGeometry x="156" width="22" height="22" as="geometry">
            <mxRectangle width="22" height="22" as="alternateBounds" />
          </mxGeometry>
        </mxCell>
        <mxCell id="Q76sP8cnPLgWwebVLIvH-50" style="shape=tableRow;horizontal=0;startSize=0;swimlaneHead=0;swimlaneBody=0;fillColor=none;collapsible=0;dropTarget=0;points=[[0,0.5],[1,0.5]];portConstraint=eastwest;top=0;left=0;right=0;bottom=0;" vertex="1" parent="Q76sP8cnPLgWwebVLIvH-1">
          <mxGeometry y="289" width="178" height="22" as="geometry" />
        </mxCell>
        <mxCell id="Q76sP8cnPLgWwebVLIvH-51" value="boolean" style="shape=partialRectangle;connectable=0;fillColor=none;top=0;left=0;bottom=0;right=0;align=left;spacingLeft=2;overflow=hidden;fontSize=11;" vertex="1" parent="Q76sP8cnPLgWwebVLIvH-50">
          <mxGeometry width="54" height="22" as="geometry">
            <mxRectangle width="54" height="22" as="alternateBounds" />
          </mxGeometry>
        </mxCell>
        <mxCell id="Q76sP8cnPLgWwebVLIvH-52" value="verificacao_sms" style="shape=partialRectangle;connectable=0;fillColor=none;top=0;left=0;bottom=0;right=0;align=left;spacingLeft=2;overflow=hidden;fontSize=11;" vertex="1" parent="Q76sP8cnPLgWwebVLIvH-50">
          <mxGeometry x="54" width="102" height="22" as="geometry">
            <mxRectangle width="102" height="22" as="alternateBounds" />
          </mxGeometry>
        </mxCell>
        <mxCell id="Q76sP8cnPLgWwebVLIvH-53" value="" style="shape=partialRectangle;connectable=0;fillColor=none;top=0;left=0;bottom=0;right=0;align=left;spacingLeft=2;overflow=hidden;fontSize=11;" vertex="1" parent="Q76sP8cnPLgWwebVLIvH-50">
          <mxGeometry x="156" width="22" height="22" as="geometry">
            <mxRectangle width="22" height="22" as="alternateBounds" />
          </mxGeometry>
        </mxCell>
        <mxCell id="Q76sP8cnPLgWwebVLIvH-54" style="shape=tableRow;horizontal=0;startSize=0;swimlaneHead=0;swimlaneBody=0;fillColor=none;collapsible=0;dropTarget=0;points=[[0,0.5],[1,0.5]];portConstraint=eastwest;top=0;left=0;right=0;bottom=0;" vertex="1" parent="Q76sP8cnPLgWwebVLIvH-1">
          <mxGeometry y="311" width="178" height="22" as="geometry" />
        </mxCell>
        <mxCell id="Q76sP8cnPLgWwebVLIvH-55" value="timestamp" style="shape=partialRectangle;connectable=0;fillColor=none;top=0;left=0;bottom=0;right=0;align=left;spacingLeft=2;overflow=hidden;fontSize=11;" vertex="1" parent="Q76sP8cnPLgWwebVLIvH-54">
          <mxGeometry width="54" height="22" as="geometry">
            <mxRectangle width="54" height="22" as="alternateBounds" />
          </mxGeometry>
        </mxCell>
        <mxCell id="Q76sP8cnPLgWwebVLIvH-56" value="ultimo_login" style="shape=partialRectangle;connectable=0;fillColor=none;top=0;left=0;bottom=0;right=0;align=left;spacingLeft=2;overflow=hidden;fontSize=11;" vertex="1" parent="Q76sP8cnPLgWwebVLIvH-54">
          <mxGeometry x="54" width="102" height="22" as="geometry">
            <mxRectangle width="102" height="22" as="alternateBounds" />
          </mxGeometry>
        </mxCell>
        <mxCell id="Q76sP8cnPLgWwebVLIvH-57" value="" style="shape=partialRectangle;connectable=0;fillColor=none;top=0;left=0;bottom=0;right=0;align=left;spacingLeft=2;overflow=hidden;fontSize=11;" vertex="1" parent="Q76sP8cnPLgWwebVLIvH-54">
          <mxGeometry x="156" width="22" height="22" as="geometry">
            <mxRectangle width="22" height="22" as="alternateBounds" />
          </mxGeometry>
        </mxCell>
        <mxCell id="Q76sP8cnPLgWwebVLIvH-58" style="shape=tableRow;horizontal=0;startSize=0;swimlaneHead=0;swimlaneBody=0;fillColor=none;collapsible=0;dropTarget=0;points=[[0,0.5],[1,0.5]];portConstraint=eastwest;top=0;left=0;right=0;bottom=0;" vertex="1" parent="Q76sP8cnPLgWwebVLIvH-1">
          <mxGeometry y="333" width="178" height="22" as="geometry" />
        </mxCell>
        <mxCell id="Q76sP8cnPLgWwebVLIvH-59" value="timestamp" style="shape=partialRectangle;connectable=0;fillColor=none;top=0;left=0;bottom=0;right=0;align=left;spacingLeft=2;overflow=hidden;fontSize=11;" vertex="1" parent="Q76sP8cnPLgWwebVLIvH-58">
          <mxGeometry width="54" height="22" as="geometry">
            <mxRectangle width="54" height="22" as="alternateBounds" />
          </mxGeometry>
        </mxCell>
        <mxCell id="Q76sP8cnPLgWwebVLIvH-60" value="data_criacao" style="shape=partialRectangle;connectable=0;fillColor=none;top=0;left=0;bottom=0;right=0;align=left;spacingLeft=2;overflow=hidden;fontSize=11;" vertex="1" parent="Q76sP8cnPLgWwebVLIvH-58">
          <mxGeometry x="54" width="102" height="22" as="geometry">
            <mxRectangle width="102" height="22" as="alternateBounds" />
          </mxGeometry>
        </mxCell>
        <mxCell id="Q76sP8cnPLgWwebVLIvH-61" value="" style="shape=partialRectangle;connectable=0;fillColor=none;top=0;left=0;bottom=0;right=0;align=left;spacingLeft=2;overflow=hidden;fontSize=11;" vertex="1" parent="Q76sP8cnPLgWwebVLIvH-58">
          <mxGeometry x="156" width="22" height="22" as="geometry">
            <mxRectangle width="22" height="22" as="alternateBounds" />
          </mxGeometry>
        </mxCell>
        <mxCell id="Q76sP8cnPLgWwebVLIvH-62" style="shape=tableRow;horizontal=0;startSize=0;swimlaneHead=0;swimlaneBody=0;fillColor=none;collapsible=0;dropTarget=0;points=[[0,0.5],[1,0.5]];portConstraint=eastwest;top=0;left=0;right=0;bottom=0;" vertex="1" parent="Q76sP8cnPLgWwebVLIvH-1">
          <mxGeometry y="355" width="178" height="22" as="geometry" />
        </mxCell>
        <mxCell id="Q76sP8cnPLgWwebVLIvH-63" value="timestamp" style="shape=partialRectangle;connectable=0;fillColor=none;top=0;left=0;bottom=0;right=0;align=left;spacingLeft=2;overflow=hidden;fontSize=11;" vertex="1" parent="Q76sP8cnPLgWwebVLIvH-62">
          <mxGeometry width="54" height="22" as="geometry">
            <mxRectangle width="54" height="22" as="alternateBounds" />
          </mxGeometry>
        </mxCell>
        <mxCell id="Q76sP8cnPLgWwebVLIvH-64" value="data_atualizacao" style="shape=partialRectangle;connectable=0;fillColor=none;top=0;left=0;bottom=0;right=0;align=left;spacingLeft=2;overflow=hidden;fontSize=11;" vertex="1" parent="Q76sP8cnPLgWwebVLIvH-62">
          <mxGeometry x="54" width="102" height="22" as="geometry">
            <mxRectangle width="102" height="22" as="alternateBounds" />
          </mxGeometry>
        </mxCell>
        <mxCell id="Q76sP8cnPLgWwebVLIvH-65" value="" style="shape=partialRectangle;connectable=0;fillColor=none;top=0;left=0;bottom=0;right=0;align=left;spacingLeft=2;overflow=hidden;fontSize=11;" vertex="1" parent="Q76sP8cnPLgWwebVLIvH-62">
          <mxGeometry x="156" width="22" height="22" as="geometry">
            <mxRectangle width="22" height="22" as="alternateBounds" />
          </mxGeometry>
        </mxCell>
        <mxCell id="Q76sP8cnPLgWwebVLIvH-66" value="PASSWORD_RESET_TOKEN" style="shape=table;startSize=25;container=1;collapsible=0;childLayout=tableLayout;fixedRows=1;rowLines=1;fontStyle=1;align=center;resizeLast=1;" vertex="1" parent="1">
          <mxGeometry x="20" y="551" width="168" height="135" as="geometry" />
        </mxCell>
        <mxCell id="Q76sP8cnPLgWwebVLIvH-67" style="shape=tableRow;horizontal=0;startSize=0;swimlaneHead=0;swimlaneBody=0;fillColor=none;collapsible=0;dropTarget=0;points=[[0,0.5],[1,0.5]];portConstraint=eastwest;top=0;left=0;right=0;bottom=0;" vertex="1" parent="Q76sP8cnPLgWwebVLIvH-66">
          <mxGeometry y="25" width="168" height="22" as="geometry" />
        </mxCell>
        <mxCell id="Q76sP8cnPLgWwebVLIvH-68" value="int" style="shape=partialRectangle;connectable=0;fillColor=none;top=0;left=0;bottom=0;right=0;align=left;spacingLeft=2;overflow=hidden;fontSize=11;" vertex="1" parent="Q76sP8cnPLgWwebVLIvH-67">
          <mxGeometry width="54" height="22" as="geometry">
            <mxRectangle width="54" height="22" as="alternateBounds" />
          </mxGeometry>
        </mxCell>
        <mxCell id="Q76sP8cnPLgWwebVLIvH-69" value="id" style="shape=partialRectangle;connectable=0;fillColor=none;top=0;left=0;bottom=0;right=0;align=left;spacingLeft=2;overflow=hidden;fontSize=11;" vertex="1" parent="Q76sP8cnPLgWwebVLIvH-67">
          <mxGeometry x="54" width="92" height="22" as="geometry">
            <mxRectangle width="92" height="22" as="alternateBounds" />
          </mxGeometry>
        </mxCell>
        <mxCell id="Q76sP8cnPLgWwebVLIvH-70" value="PK" style="shape=partialRectangle;connectable=0;fillColor=none;top=0;left=0;bottom=0;right=0;align=left;spacingLeft=2;overflow=hidden;fontSize=11;" vertex="1" parent="Q76sP8cnPLgWwebVLIvH-67">
          <mxGeometry x="146" width="22" height="22" as="geometry">
            <mxRectangle width="22" height="22" as="alternateBounds" />
          </mxGeometry>
        </mxCell>
        <mxCell id="Q76sP8cnPLgWwebVLIvH-71" style="shape=tableRow;horizontal=0;startSize=0;swimlaneHead=0;swimlaneBody=0;fillColor=none;collapsible=0;dropTarget=0;points=[[0,0.5],[1,0.5]];portConstraint=eastwest;top=0;left=0;right=0;bottom=0;" vertex="1" parent="Q76sP8cnPLgWwebVLIvH-66">
          <mxGeometry y="47" width="168" height="22" as="geometry" />
        </mxCell>
        <mxCell id="Q76sP8cnPLgWwebVLIvH-72" value="int" style="shape=partialRectangle;connectable=0;fillColor=none;top=0;left=0;bottom=0;right=0;align=left;spacingLeft=2;overflow=hidden;fontSize=11;" vertex="1" parent="Q76sP8cnPLgWwebVLIvH-71">
          <mxGeometry width="54" height="22" as="geometry">
            <mxRectangle width="54" height="22" as="alternateBounds" />
          </mxGeometry>
        </mxCell>
        <mxCell id="Q76sP8cnPLgWwebVLIvH-73" value="usuario_id" style="shape=partialRectangle;connectable=0;fillColor=none;top=0;left=0;bottom=0;right=0;align=left;spacingLeft=2;overflow=hidden;fontSize=11;" vertex="1" parent="Q76sP8cnPLgWwebVLIvH-71">
          <mxGeometry x="54" width="92" height="22" as="geometry">
            <mxRectangle width="92" height="22" as="alternateBounds" />
          </mxGeometry>
        </mxCell>
        <mxCell id="Q76sP8cnPLgWwebVLIvH-74" value="FK" style="shape=partialRectangle;connectable=0;fillColor=none;top=0;left=0;bottom=0;right=0;align=left;spacingLeft=2;overflow=hidden;fontSize=11;" vertex="1" parent="Q76sP8cnPLgWwebVLIvH-71">
          <mxGeometry x="146" width="22" height="22" as="geometry">
            <mxRectangle width="22" height="22" as="alternateBounds" />
          </mxGeometry>
        </mxCell>
        <mxCell id="Q76sP8cnPLgWwebVLIvH-75" style="shape=tableRow;horizontal=0;startSize=0;swimlaneHead=0;swimlaneBody=0;fillColor=none;collapsible=0;dropTarget=0;points=[[0,0.5],[1,0.5]];portConstraint=eastwest;top=0;left=0;right=0;bottom=0;" vertex="1" parent="Q76sP8cnPLgWwebVLIvH-66">
          <mxGeometry y="69" width="168" height="22" as="geometry" />
        </mxCell>
        <mxCell id="Q76sP8cnPLgWwebVLIvH-76" value="string" style="shape=partialRectangle;connectable=0;fillColor=none;top=0;left=0;bottom=0;right=0;align=left;spacingLeft=2;overflow=hidden;fontSize=11;" vertex="1" parent="Q76sP8cnPLgWwebVLIvH-75">
          <mxGeometry width="54" height="22" as="geometry">
            <mxRectangle width="54" height="22" as="alternateBounds" />
          </mxGeometry>
        </mxCell>
        <mxCell id="Q76sP8cnPLgWwebVLIvH-77" value="token" style="shape=partialRectangle;connectable=0;fillColor=none;top=0;left=0;bottom=0;right=0;align=left;spacingLeft=2;overflow=hidden;fontSize=11;" vertex="1" parent="Q76sP8cnPLgWwebVLIvH-75">
          <mxGeometry x="54" width="92" height="22" as="geometry">
            <mxRectangle width="92" height="22" as="alternateBounds" />
          </mxGeometry>
        </mxCell>
        <mxCell id="Q76sP8cnPLgWwebVLIvH-78" value="" style="shape=partialRectangle;connectable=0;fillColor=none;top=0;left=0;bottom=0;right=0;align=left;spacingLeft=2;overflow=hidden;fontSize=11;" vertex="1" parent="Q76sP8cnPLgWwebVLIvH-75">
          <mxGeometry x="146" width="22" height="22" as="geometry">
            <mxRectangle width="22" height="22" as="alternateBounds" />
          </mxGeometry>
        </mxCell>
        <mxCell id="Q76sP8cnPLgWwebVLIvH-79" style="shape=tableRow;horizontal=0;startSize=0;swimlaneHead=0;swimlaneBody=0;fillColor=none;collapsible=0;dropTarget=0;points=[[0,0.5],[1,0.5]];portConstraint=eastwest;top=0;left=0;right=0;bottom=0;" vertex="1" parent="Q76sP8cnPLgWwebVLIvH-66">
          <mxGeometry y="91" width="168" height="22" as="geometry" />
        </mxCell>
        <mxCell id="Q76sP8cnPLgWwebVLIvH-80" value="timestamp" style="shape=partialRectangle;connectable=0;fillColor=none;top=0;left=0;bottom=0;right=0;align=left;spacingLeft=2;overflow=hidden;fontSize=11;" vertex="1" parent="Q76sP8cnPLgWwebVLIvH-79">
          <mxGeometry width="54" height="22" as="geometry">
            <mxRectangle width="54" height="22" as="alternateBounds" />
          </mxGeometry>
        </mxCell>
        <mxCell id="Q76sP8cnPLgWwebVLIvH-81" value="data_expiracao" style="shape=partialRectangle;connectable=0;fillColor=none;top=0;left=0;bottom=0;right=0;align=left;spacingLeft=2;overflow=hidden;fontSize=11;" vertex="1" parent="Q76sP8cnPLgWwebVLIvH-79">
          <mxGeometry x="54" width="92" height="22" as="geometry">
            <mxRectangle width="92" height="22" as="alternateBounds" />
          </mxGeometry>
        </mxCell>
        <mxCell id="Q76sP8cnPLgWwebVLIvH-82" value="" style="shape=partialRectangle;connectable=0;fillColor=none;top=0;left=0;bottom=0;right=0;align=left;spacingLeft=2;overflow=hidden;fontSize=11;" vertex="1" parent="Q76sP8cnPLgWwebVLIvH-79">
          <mxGeometry x="146" width="22" height="22" as="geometry">
            <mxRectangle width="22" height="22" as="alternateBounds" />
          </mxGeometry>
        </mxCell>
        <mxCell id="Q76sP8cnPLgWwebVLIvH-83" style="shape=tableRow;horizontal=0;startSize=0;swimlaneHead=0;swimlaneBody=0;fillColor=none;collapsible=0;dropTarget=0;points=[[0,0.5],[1,0.5]];portConstraint=eastwest;top=0;left=0;right=0;bottom=0;" vertex="1" parent="Q76sP8cnPLgWwebVLIvH-66">
          <mxGeometry y="113" width="168" height="22" as="geometry" />
        </mxCell>
        <mxCell id="Q76sP8cnPLgWwebVLIvH-84" value="timestamp" style="shape=partialRectangle;connectable=0;fillColor=none;top=0;left=0;bottom=0;right=0;align=left;spacingLeft=2;overflow=hidden;fontSize=11;" vertex="1" parent="Q76sP8cnPLgWwebVLIvH-83">
          <mxGeometry width="54" height="22" as="geometry">
            <mxRectangle width="54" height="22" as="alternateBounds" />
          </mxGeometry>
        </mxCell>
        <mxCell id="Q76sP8cnPLgWwebVLIvH-85" value="data_criacao" style="shape=partialRectangle;connectable=0;fillColor=none;top=0;left=0;bottom=0;right=0;align=left;spacingLeft=2;overflow=hidden;fontSize=11;" vertex="1" parent="Q76sP8cnPLgWwebVLIvH-83">
          <mxGeometry x="54" width="92" height="22" as="geometry">
            <mxRectangle width="92" height="22" as="alternateBounds" />
          </mxGeometry>
        </mxCell>
        <mxCell id="Q76sP8cnPLgWwebVLIvH-86" value="" style="shape=partialRectangle;connectable=0;fillColor=none;top=0;left=0;bottom=0;right=0;align=left;spacingLeft=2;overflow=hidden;fontSize=11;" vertex="1" parent="Q76sP8cnPLgWwebVLIvH-83">
          <mxGeometry x="146" width="22" height="22" as="geometry">
            <mxRectangle width="22" height="22" as="alternateBounds" />
          </mxGeometry>
        </mxCell>
        <mxCell id="Q76sP8cnPLgWwebVLIvH-87" value="NOTA" style="shape=table;startSize=25;container=1;collapsible=0;childLayout=tableLayout;fixedRows=1;rowLines=1;fontStyle=1;align=center;resizeLast=1;" vertex="1" parent="1">
          <mxGeometry x="288" y="496" width="172" height="245" as="geometry" />
        </mxCell>
        <mxCell id="Q76sP8cnPLgWwebVLIvH-88" style="shape=tableRow;horizontal=0;startSize=0;swimlaneHead=0;swimlaneBody=0;fillColor=none;collapsible=0;dropTarget=0;points=[[0,0.5],[1,0.5]];portConstraint=eastwest;top=0;left=0;right=0;bottom=0;" vertex="1" parent="Q76sP8cnPLgWwebVLIvH-87">
          <mxGeometry y="25" width="172" height="22" as="geometry" />
        </mxCell>
        <mxCell id="Q76sP8cnPLgWwebVLIvH-89" value="int" style="shape=partialRectangle;connectable=0;fillColor=none;top=0;left=0;bottom=0;right=0;align=left;spacingLeft=2;overflow=hidden;fontSize=11;" vertex="1" parent="Q76sP8cnPLgWwebVLIvH-88">
          <mxGeometry width="54" height="22" as="geometry">
            <mxRectangle width="54" height="22" as="alternateBounds" />
          </mxGeometry>
        </mxCell>
        <mxCell id="Q76sP8cnPLgWwebVLIvH-90" value="id" style="shape=partialRectangle;connectable=0;fillColor=none;top=0;left=0;bottom=0;right=0;align=left;spacingLeft=2;overflow=hidden;fontSize=11;" vertex="1" parent="Q76sP8cnPLgWwebVLIvH-88">
          <mxGeometry x="54" width="96" height="22" as="geometry">
            <mxRectangle width="96" height="22" as="alternateBounds" />
          </mxGeometry>
        </mxCell>
        <mxCell id="Q76sP8cnPLgWwebVLIvH-91" value="PK" style="shape=partialRectangle;connectable=0;fillColor=none;top=0;left=0;bottom=0;right=0;align=left;spacingLeft=2;overflow=hidden;fontSize=11;" vertex="1" parent="Q76sP8cnPLgWwebVLIvH-88">
          <mxGeometry x="150" width="22" height="22" as="geometry">
            <mxRectangle width="22" height="22" as="alternateBounds" />
          </mxGeometry>
        </mxCell>
        <mxCell id="Q76sP8cnPLgWwebVLIvH-92" style="shape=tableRow;horizontal=0;startSize=0;swimlaneHead=0;swimlaneBody=0;fillColor=none;collapsible=0;dropTarget=0;points=[[0,0.5],[1,0.5]];portConstraint=eastwest;top=0;left=0;right=0;bottom=0;" vertex="1" parent="Q76sP8cnPLgWwebVLIvH-87">
          <mxGeometry y="47" width="172" height="22" as="geometry" />
        </mxCell>
        <mxCell id="Q76sP8cnPLgWwebVLIvH-93" value="string" style="shape=partialRectangle;connectable=0;fillColor=none;top=0;left=0;bottom=0;right=0;align=left;spacingLeft=2;overflow=hidden;fontSize=11;" vertex="1" parent="Q76sP8cnPLgWwebVLIvH-92">
          <mxGeometry width="54" height="22" as="geometry">
            <mxRectangle width="54" height="22" as="alternateBounds" />
          </mxGeometry>
        </mxCell>
        <mxCell id="Q76sP8cnPLgWwebVLIvH-94" value="titulo" style="shape=partialRectangle;connectable=0;fillColor=none;top=0;left=0;bottom=0;right=0;align=left;spacingLeft=2;overflow=hidden;fontSize=11;" vertex="1" parent="Q76sP8cnPLgWwebVLIvH-92">
          <mxGeometry x="54" width="96" height="22" as="geometry">
            <mxRectangle width="96" height="22" as="alternateBounds" />
          </mxGeometry>
        </mxCell>
        <mxCell id="Q76sP8cnPLgWwebVLIvH-95" value="" style="shape=partialRectangle;connectable=0;fillColor=none;top=0;left=0;bottom=0;right=0;align=left;spacingLeft=2;overflow=hidden;fontSize=11;" vertex="1" parent="Q76sP8cnPLgWwebVLIvH-92">
          <mxGeometry x="150" width="22" height="22" as="geometry">
            <mxRectangle width="22" height="22" as="alternateBounds" />
          </mxGeometry>
        </mxCell>
        <mxCell id="Q76sP8cnPLgWwebVLIvH-96" style="shape=tableRow;horizontal=0;startSize=0;swimlaneHead=0;swimlaneBody=0;fillColor=none;collapsible=0;dropTarget=0;points=[[0,0.5],[1,0.5]];portConstraint=eastwest;top=0;left=0;right=0;bottom=0;" vertex="1" parent="Q76sP8cnPLgWwebVLIvH-87">
          <mxGeometry y="69" width="172" height="22" as="geometry" />
        </mxCell>
        <mxCell id="Q76sP8cnPLgWwebVLIvH-97" value="string" style="shape=partialRectangle;connectable=0;fillColor=none;top=0;left=0;bottom=0;right=0;align=left;spacingLeft=2;overflow=hidden;fontSize=11;" vertex="1" parent="Q76sP8cnPLgWwebVLIvH-96">
          <mxGeometry width="54" height="22" as="geometry">
            <mxRectangle width="54" height="22" as="alternateBounds" />
          </mxGeometry>
        </mxCell>
        <mxCell id="Q76sP8cnPLgWwebVLIvH-98" value="descricao" style="shape=partialRectangle;connectable=0;fillColor=none;top=0;left=0;bottom=0;right=0;align=left;spacingLeft=2;overflow=hidden;fontSize=11;" vertex="1" parent="Q76sP8cnPLgWwebVLIvH-96">
          <mxGeometry x="54" width="96" height="22" as="geometry">
            <mxRectangle width="96" height="22" as="alternateBounds" />
          </mxGeometry>
        </mxCell>
        <mxCell id="Q76sP8cnPLgWwebVLIvH-99" value="" style="shape=partialRectangle;connectable=0;fillColor=none;top=0;left=0;bottom=0;right=0;align=left;spacingLeft=2;overflow=hidden;fontSize=11;" vertex="1" parent="Q76sP8cnPLgWwebVLIvH-96">
          <mxGeometry x="150" width="22" height="22" as="geometry">
            <mxRectangle width="22" height="22" as="alternateBounds" />
          </mxGeometry>
        </mxCell>
        <mxCell id="Q76sP8cnPLgWwebVLIvH-100" style="shape=tableRow;horizontal=0;startSize=0;swimlaneHead=0;swimlaneBody=0;fillColor=none;collapsible=0;dropTarget=0;points=[[0,0.5],[1,0.5]];portConstraint=eastwest;top=0;left=0;right=0;bottom=0;" vertex="1" parent="Q76sP8cnPLgWwebVLIvH-87">
          <mxGeometry y="91" width="172" height="22" as="geometry" />
        </mxCell>
        <mxCell id="Q76sP8cnPLgWwebVLIvH-101" value="string" style="shape=partialRectangle;connectable=0;fillColor=none;top=0;left=0;bottom=0;right=0;align=left;spacingLeft=2;overflow=hidden;fontSize=11;" vertex="1" parent="Q76sP8cnPLgWwebVLIvH-100">
          <mxGeometry width="54" height="22" as="geometry">
            <mxRectangle width="54" height="22" as="alternateBounds" />
          </mxGeometry>
        </mxCell>
        <mxCell id="Q76sP8cnPLgWwebVLIvH-102" value="tipo" style="shape=partialRectangle;connectable=0;fillColor=none;top=0;left=0;bottom=0;right=0;align=left;spacingLeft=2;overflow=hidden;fontSize=11;" vertex="1" parent="Q76sP8cnPLgWwebVLIvH-100">
          <mxGeometry x="54" width="96" height="22" as="geometry">
            <mxRectangle width="96" height="22" as="alternateBounds" />
          </mxGeometry>
        </mxCell>
        <mxCell id="Q76sP8cnPLgWwebVLIvH-103" value="" style="shape=partialRectangle;connectable=0;fillColor=none;top=0;left=0;bottom=0;right=0;align=left;spacingLeft=2;overflow=hidden;fontSize=11;" vertex="1" parent="Q76sP8cnPLgWwebVLIvH-100">
          <mxGeometry x="150" width="22" height="22" as="geometry">
            <mxRectangle width="22" height="22" as="alternateBounds" />
          </mxGeometry>
        </mxCell>
        <mxCell id="Q76sP8cnPLgWwebVLIvH-104" style="shape=tableRow;horizontal=0;startSize=0;swimlaneHead=0;swimlaneBody=0;fillColor=none;collapsible=0;dropTarget=0;points=[[0,0.5],[1,0.5]];portConstraint=eastwest;top=0;left=0;right=0;bottom=0;" vertex="1" parent="Q76sP8cnPLgWwebVLIvH-87">
          <mxGeometry y="113" width="172" height="22" as="geometry" />
        </mxCell>
        <mxCell id="Q76sP8cnPLgWwebVLIvH-105" value="string" style="shape=partialRectangle;connectable=0;fillColor=none;top=0;left=0;bottom=0;right=0;align=left;spacingLeft=2;overflow=hidden;fontSize=11;" vertex="1" parent="Q76sP8cnPLgWwebVLIvH-104">
          <mxGeometry width="54" height="22" as="geometry">
            <mxRectangle width="54" height="22" as="alternateBounds" />
          </mxGeometry>
        </mxCell>
        <mxCell id="Q76sP8cnPLgWwebVLIvH-106" value="status" style="shape=partialRectangle;connectable=0;fillColor=none;top=0;left=0;bottom=0;right=0;align=left;spacingLeft=2;overflow=hidden;fontSize=11;" vertex="1" parent="Q76sP8cnPLgWwebVLIvH-104">
          <mxGeometry x="54" width="96" height="22" as="geometry">
            <mxRectangle width="96" height="22" as="alternateBounds" />
          </mxGeometry>
        </mxCell>
        <mxCell id="Q76sP8cnPLgWwebVLIvH-107" value="" style="shape=partialRectangle;connectable=0;fillColor=none;top=0;left=0;bottom=0;right=0;align=left;spacingLeft=2;overflow=hidden;fontSize=11;" vertex="1" parent="Q76sP8cnPLgWwebVLIvH-104">
          <mxGeometry x="150" width="22" height="22" as="geometry">
            <mxRectangle width="22" height="22" as="alternateBounds" />
          </mxGeometry>
        </mxCell>
        <mxCell id="Q76sP8cnPLgWwebVLIvH-108" style="shape=tableRow;horizontal=0;startSize=0;swimlaneHead=0;swimlaneBody=0;fillColor=none;collapsible=0;dropTarget=0;points=[[0,0.5],[1,0.5]];portConstraint=eastwest;top=0;left=0;right=0;bottom=0;" vertex="1" parent="Q76sP8cnPLgWwebVLIvH-87">
          <mxGeometry y="135" width="172" height="22" as="geometry" />
        </mxCell>
        <mxCell id="Q76sP8cnPLgWwebVLIvH-109" value="date" style="shape=partialRectangle;connectable=0;fillColor=none;top=0;left=0;bottom=0;right=0;align=left;spacingLeft=2;overflow=hidden;fontSize=11;" vertex="1" parent="Q76sP8cnPLgWwebVLIvH-108">
          <mxGeometry width="54" height="22" as="geometry">
            <mxRectangle width="54" height="22" as="alternateBounds" />
          </mxGeometry>
        </mxCell>
        <mxCell id="Q76sP8cnPLgWwebVLIvH-110" value="data_inicio" style="shape=partialRectangle;connectable=0;fillColor=none;top=0;left=0;bottom=0;right=0;align=left;spacingLeft=2;overflow=hidden;fontSize=11;" vertex="1" parent="Q76sP8cnPLgWwebVLIvH-108">
          <mxGeometry x="54" width="96" height="22" as="geometry">
            <mxRectangle width="96" height="22" as="alternateBounds" />
          </mxGeometry>
        </mxCell>
        <mxCell id="Q76sP8cnPLgWwebVLIvH-111" value="" style="shape=partialRectangle;connectable=0;fillColor=none;top=0;left=0;bottom=0;right=0;align=left;spacingLeft=2;overflow=hidden;fontSize=11;" vertex="1" parent="Q76sP8cnPLgWwebVLIvH-108">
          <mxGeometry x="150" width="22" height="22" as="geometry">
            <mxRectangle width="22" height="22" as="alternateBounds" />
          </mxGeometry>
        </mxCell>
        <mxCell id="Q76sP8cnPLgWwebVLIvH-112" style="shape=tableRow;horizontal=0;startSize=0;swimlaneHead=0;swimlaneBody=0;fillColor=none;collapsible=0;dropTarget=0;points=[[0,0.5],[1,0.5]];portConstraint=eastwest;top=0;left=0;right=0;bottom=0;" vertex="1" parent="Q76sP8cnPLgWwebVLIvH-87">
          <mxGeometry y="157" width="172" height="22" as="geometry" />
        </mxCell>
        <mxCell id="Q76sP8cnPLgWwebVLIvH-113" value="date" style="shape=partialRectangle;connectable=0;fillColor=none;top=0;left=0;bottom=0;right=0;align=left;spacingLeft=2;overflow=hidden;fontSize=11;" vertex="1" parent="Q76sP8cnPLgWwebVLIvH-112">
          <mxGeometry width="54" height="22" as="geometry">
            <mxRectangle width="54" height="22" as="alternateBounds" />
          </mxGeometry>
        </mxCell>
        <mxCell id="Q76sP8cnPLgWwebVLIvH-114" value="data_fim" style="shape=partialRectangle;connectable=0;fillColor=none;top=0;left=0;bottom=0;right=0;align=left;spacingLeft=2;overflow=hidden;fontSize=11;" vertex="1" parent="Q76sP8cnPLgWwebVLIvH-112">
          <mxGeometry x="54" width="96" height="22" as="geometry">
            <mxRectangle width="96" height="22" as="alternateBounds" />
          </mxGeometry>
        </mxCell>
        <mxCell id="Q76sP8cnPLgWwebVLIvH-115" value="" style="shape=partialRectangle;connectable=0;fillColor=none;top=0;left=0;bottom=0;right=0;align=left;spacingLeft=2;overflow=hidden;fontSize=11;" vertex="1" parent="Q76sP8cnPLgWwebVLIvH-112">
          <mxGeometry x="150" width="22" height="22" as="geometry">
            <mxRectangle width="22" height="22" as="alternateBounds" />
          </mxGeometry>
        </mxCell>
        <mxCell id="Q76sP8cnPLgWwebVLIvH-116" style="shape=tableRow;horizontal=0;startSize=0;swimlaneHead=0;swimlaneBody=0;fillColor=none;collapsible=0;dropTarget=0;points=[[0,0.5],[1,0.5]];portConstraint=eastwest;top=0;left=0;right=0;bottom=0;" vertex="1" parent="Q76sP8cnPLgWwebVLIvH-87">
          <mxGeometry y="179" width="172" height="22" as="geometry" />
        </mxCell>
        <mxCell id="Q76sP8cnPLgWwebVLIvH-117" value="timestamp" style="shape=partialRectangle;connectable=0;fillColor=none;top=0;left=0;bottom=0;right=0;align=left;spacingLeft=2;overflow=hidden;fontSize=11;" vertex="1" parent="Q76sP8cnPLgWwebVLIvH-116">
          <mxGeometry width="54" height="22" as="geometry">
            <mxRectangle width="54" height="22" as="alternateBounds" />
          </mxGeometry>
        </mxCell>
        <mxCell id="Q76sP8cnPLgWwebVLIvH-118" value="data_criacao" style="shape=partialRectangle;connectable=0;fillColor=none;top=0;left=0;bottom=0;right=0;align=left;spacingLeft=2;overflow=hidden;fontSize=11;" vertex="1" parent="Q76sP8cnPLgWwebVLIvH-116">
          <mxGeometry x="54" width="96" height="22" as="geometry">
            <mxRectangle width="96" height="22" as="alternateBounds" />
          </mxGeometry>
        </mxCell>
        <mxCell id="Q76sP8cnPLgWwebVLIvH-119" value="" style="shape=partialRectangle;connectable=0;fillColor=none;top=0;left=0;bottom=0;right=0;align=left;spacingLeft=2;overflow=hidden;fontSize=11;" vertex="1" parent="Q76sP8cnPLgWwebVLIvH-116">
          <mxGeometry x="150" width="22" height="22" as="geometry">
            <mxRectangle width="22" height="22" as="alternateBounds" />
          </mxGeometry>
        </mxCell>
        <mxCell id="Q76sP8cnPLgWwebVLIvH-120" style="shape=tableRow;horizontal=0;startSize=0;swimlaneHead=0;swimlaneBody=0;fillColor=none;collapsible=0;dropTarget=0;points=[[0,0.5],[1,0.5]];portConstraint=eastwest;top=0;left=0;right=0;bottom=0;" vertex="1" parent="Q76sP8cnPLgWwebVLIvH-87">
          <mxGeometry y="201" width="172" height="22" as="geometry" />
        </mxCell>
        <mxCell id="Q76sP8cnPLgWwebVLIvH-121" value="timestamp" style="shape=partialRectangle;connectable=0;fillColor=none;top=0;left=0;bottom=0;right=0;align=left;spacingLeft=2;overflow=hidden;fontSize=11;" vertex="1" parent="Q76sP8cnPLgWwebVLIvH-120">
          <mxGeometry width="54" height="22" as="geometry">
            <mxRectangle width="54" height="22" as="alternateBounds" />
          </mxGeometry>
        </mxCell>
        <mxCell id="Q76sP8cnPLgWwebVLIvH-122" value="data_atualizacao" style="shape=partialRectangle;connectable=0;fillColor=none;top=0;left=0;bottom=0;right=0;align=left;spacingLeft=2;overflow=hidden;fontSize=11;" vertex="1" parent="Q76sP8cnPLgWwebVLIvH-120">
          <mxGeometry x="54" width="96" height="22" as="geometry">
            <mxRectangle width="96" height="22" as="alternateBounds" />
          </mxGeometry>
        </mxCell>
        <mxCell id="Q76sP8cnPLgWwebVLIvH-123" value="" style="shape=partialRectangle;connectable=0;fillColor=none;top=0;left=0;bottom=0;right=0;align=left;spacingLeft=2;overflow=hidden;fontSize=11;" vertex="1" parent="Q76sP8cnPLgWwebVLIvH-120">
          <mxGeometry x="150" width="22" height="22" as="geometry">
            <mxRectangle width="22" height="22" as="alternateBounds" />
          </mxGeometry>
        </mxCell>
        <mxCell id="Q76sP8cnPLgWwebVLIvH-124" style="shape=tableRow;horizontal=0;startSize=0;swimlaneHead=0;swimlaneBody=0;fillColor=none;collapsible=0;dropTarget=0;points=[[0,0.5],[1,0.5]];portConstraint=eastwest;top=0;left=0;right=0;bottom=0;" vertex="1" parent="Q76sP8cnPLgWwebVLIvH-87">
          <mxGeometry y="223" width="172" height="22" as="geometry" />
        </mxCell>
        <mxCell id="Q76sP8cnPLgWwebVLIvH-125" value="int" style="shape=partialRectangle;connectable=0;fillColor=none;top=0;left=0;bottom=0;right=0;align=left;spacingLeft=2;overflow=hidden;fontSize=11;" vertex="1" parent="Q76sP8cnPLgWwebVLIvH-124">
          <mxGeometry width="54" height="22" as="geometry">
            <mxRectangle width="54" height="22" as="alternateBounds" />
          </mxGeometry>
        </mxCell>
        <mxCell id="Q76sP8cnPLgWwebVLIvH-126" value="usuario_id" style="shape=partialRectangle;connectable=0;fillColor=none;top=0;left=0;bottom=0;right=0;align=left;spacingLeft=2;overflow=hidden;fontSize=11;" vertex="1" parent="Q76sP8cnPLgWwebVLIvH-124">
          <mxGeometry x="54" width="96" height="22" as="geometry">
            <mxRectangle width="96" height="22" as="alternateBounds" />
          </mxGeometry>
        </mxCell>
        <mxCell id="Q76sP8cnPLgWwebVLIvH-127" value="FK" style="shape=partialRectangle;connectable=0;fillColor=none;top=0;left=0;bottom=0;right=0;align=left;spacingLeft=2;overflow=hidden;fontSize=11;" vertex="1" parent="Q76sP8cnPLgWwebVLIvH-124">
          <mxGeometry x="150" width="22" height="22" as="geometry">
            <mxRectangle width="22" height="22" as="alternateBounds" />
          </mxGeometry>
        </mxCell>
        <mxCell id="Q76sP8cnPLgWwebVLIvH-128" value="VINCULO" style="shape=table;startSize=25;container=1;collapsible=0;childLayout=tableLayout;fixedRows=1;rowLines=1;fontStyle=1;align=center;resizeLast=1;" vertex="1" parent="1">
          <mxGeometry x="33" y="851" width="166" height="135" as="geometry" />
        </mxCell>
        <mxCell id="Q76sP8cnPLgWwebVLIvH-129" style="shape=tableRow;horizontal=0;startSize=0;swimlaneHead=0;swimlaneBody=0;fillColor=none;collapsible=0;dropTarget=0;points=[[0,0.5],[1,0.5]];portConstraint=eastwest;top=0;left=0;right=0;bottom=0;" vertex="1" parent="Q76sP8cnPLgWwebVLIvH-128">
          <mxGeometry y="25" width="166" height="22" as="geometry" />
        </mxCell>
        <mxCell id="Q76sP8cnPLgWwebVLIvH-130" value="int" style="shape=partialRectangle;connectable=0;fillColor=none;top=0;left=0;bottom=0;right=0;align=left;spacingLeft=2;overflow=hidden;fontSize=11;" vertex="1" parent="Q76sP8cnPLgWwebVLIvH-129">
          <mxGeometry width="54" height="22" as="geometry">
            <mxRectangle width="54" height="22" as="alternateBounds" />
          </mxGeometry>
        </mxCell>
        <mxCell id="Q76sP8cnPLgWwebVLIvH-131" value="id" style="shape=partialRectangle;connectable=0;fillColor=none;top=0;left=0;bottom=0;right=0;align=left;spacingLeft=2;overflow=hidden;fontSize=11;" vertex="1" parent="Q76sP8cnPLgWwebVLIvH-129">
          <mxGeometry x="54" width="90" height="22" as="geometry">
            <mxRectangle width="90" height="22" as="alternateBounds" />
          </mxGeometry>
        </mxCell>
        <mxCell id="Q76sP8cnPLgWwebVLIvH-132" value="PK" style="shape=partialRectangle;connectable=0;fillColor=none;top=0;left=0;bottom=0;right=0;align=left;spacingLeft=2;overflow=hidden;fontSize=11;" vertex="1" parent="Q76sP8cnPLgWwebVLIvH-129">
          <mxGeometry x="144" width="22" height="22" as="geometry">
            <mxRectangle width="22" height="22" as="alternateBounds" />
          </mxGeometry>
        </mxCell>
        <mxCell id="Q76sP8cnPLgWwebVLIvH-133" style="shape=tableRow;horizontal=0;startSize=0;swimlaneHead=0;swimlaneBody=0;fillColor=none;collapsible=0;dropTarget=0;points=[[0,0.5],[1,0.5]];portConstraint=eastwest;top=0;left=0;right=0;bottom=0;" vertex="1" parent="Q76sP8cnPLgWwebVLIvH-128">
          <mxGeometry y="47" width="166" height="22" as="geometry" />
        </mxCell>
        <mxCell id="Q76sP8cnPLgWwebVLIvH-134" value="int" style="shape=partialRectangle;connectable=0;fillColor=none;top=0;left=0;bottom=0;right=0;align=left;spacingLeft=2;overflow=hidden;fontSize=11;" vertex="1" parent="Q76sP8cnPLgWwebVLIvH-133">
          <mxGeometry width="54" height="22" as="geometry">
            <mxRectangle width="54" height="22" as="alternateBounds" />
          </mxGeometry>
        </mxCell>
        <mxCell id="Q76sP8cnPLgWwebVLIvH-135" value="nota_origem_id" style="shape=partialRectangle;connectable=0;fillColor=none;top=0;left=0;bottom=0;right=0;align=left;spacingLeft=2;overflow=hidden;fontSize=11;" vertex="1" parent="Q76sP8cnPLgWwebVLIvH-133">
          <mxGeometry x="54" width="90" height="22" as="geometry">
            <mxRectangle width="90" height="22" as="alternateBounds" />
          </mxGeometry>
        </mxCell>
        <mxCell id="Q76sP8cnPLgWwebVLIvH-136" value="FK" style="shape=partialRectangle;connectable=0;fillColor=none;top=0;left=0;bottom=0;right=0;align=left;spacingLeft=2;overflow=hidden;fontSize=11;" vertex="1" parent="Q76sP8cnPLgWwebVLIvH-133">
          <mxGeometry x="144" width="22" height="22" as="geometry">
            <mxRectangle width="22" height="22" as="alternateBounds" />
          </mxGeometry>
        </mxCell>
        <mxCell id="Q76sP8cnPLgWwebVLIvH-137" style="shape=tableRow;horizontal=0;startSize=0;swimlaneHead=0;swimlaneBody=0;fillColor=none;collapsible=0;dropTarget=0;points=[[0,0.5],[1,0.5]];portConstraint=eastwest;top=0;left=0;right=0;bottom=0;" vertex="1" parent="Q76sP8cnPLgWwebVLIvH-128">
          <mxGeometry y="69" width="166" height="22" as="geometry" />
        </mxCell>
        <mxCell id="Q76sP8cnPLgWwebVLIvH-138" value="int" style="shape=partialRectangle;connectable=0;fillColor=none;top=0;left=0;bottom=0;right=0;align=left;spacingLeft=2;overflow=hidden;fontSize=11;" vertex="1" parent="Q76sP8cnPLgWwebVLIvH-137">
          <mxGeometry width="54" height="22" as="geometry">
            <mxRectangle width="54" height="22" as="alternateBounds" />
          </mxGeometry>
        </mxCell>
        <mxCell id="Q76sP8cnPLgWwebVLIvH-139" value="nota_destino_id" style="shape=partialRectangle;connectable=0;fillColor=none;top=0;left=0;bottom=0;right=0;align=left;spacingLeft=2;overflow=hidden;fontSize=11;" vertex="1" parent="Q76sP8cnPLgWwebVLIvH-137">
          <mxGeometry x="54" width="90" height="22" as="geometry">
            <mxRectangle width="90" height="22" as="alternateBounds" />
          </mxGeometry>
        </mxCell>
        <mxCell id="Q76sP8cnPLgWwebVLIvH-140" value="FK" style="shape=partialRectangle;connectable=0;fillColor=none;top=0;left=0;bottom=0;right=0;align=left;spacingLeft=2;overflow=hidden;fontSize=11;" vertex="1" parent="Q76sP8cnPLgWwebVLIvH-137">
          <mxGeometry x="144" width="22" height="22" as="geometry">
            <mxRectangle width="22" height="22" as="alternateBounds" />
          </mxGeometry>
        </mxCell>
        <mxCell id="Q76sP8cnPLgWwebVLIvH-141" style="shape=tableRow;horizontal=0;startSize=0;swimlaneHead=0;swimlaneBody=0;fillColor=none;collapsible=0;dropTarget=0;points=[[0,0.5],[1,0.5]];portConstraint=eastwest;top=0;left=0;right=0;bottom=0;" vertex="1" parent="Q76sP8cnPLgWwebVLIvH-128">
          <mxGeometry y="91" width="166" height="22" as="geometry" />
        </mxCell>
        <mxCell id="Q76sP8cnPLgWwebVLIvH-142" value="string" style="shape=partialRectangle;connectable=0;fillColor=none;top=0;left=0;bottom=0;right=0;align=left;spacingLeft=2;overflow=hidden;fontSize=11;" vertex="1" parent="Q76sP8cnPLgWwebVLIvH-141">
          <mxGeometry width="54" height="22" as="geometry">
            <mxRectangle width="54" height="22" as="alternateBounds" />
          </mxGeometry>
        </mxCell>
        <mxCell id="Q76sP8cnPLgWwebVLIvH-143" value="tipo_relacao" style="shape=partialRectangle;connectable=0;fillColor=none;top=0;left=0;bottom=0;right=0;align=left;spacingLeft=2;overflow=hidden;fontSize=11;" vertex="1" parent="Q76sP8cnPLgWwebVLIvH-141">
          <mxGeometry x="54" width="90" height="22" as="geometry">
            <mxRectangle width="90" height="22" as="alternateBounds" />
          </mxGeometry>
        </mxCell>
        <mxCell id="Q76sP8cnPLgWwebVLIvH-144" value="" style="shape=partialRectangle;connectable=0;fillColor=none;top=0;left=0;bottom=0;right=0;align=left;spacingLeft=2;overflow=hidden;fontSize=11;" vertex="1" parent="Q76sP8cnPLgWwebVLIvH-141">
          <mxGeometry x="144" width="22" height="22" as="geometry">
            <mxRectangle width="22" height="22" as="alternateBounds" />
          </mxGeometry>
        </mxCell>
        <mxCell id="Q76sP8cnPLgWwebVLIvH-145" style="shape=tableRow;horizontal=0;startSize=0;swimlaneHead=0;swimlaneBody=0;fillColor=none;collapsible=0;dropTarget=0;points=[[0,0.5],[1,0.5]];portConstraint=eastwest;top=0;left=0;right=0;bottom=0;" vertex="1" parent="Q76sP8cnPLgWwebVLIvH-128">
          <mxGeometry y="113" width="166" height="22" as="geometry" />
        </mxCell>
        <mxCell id="Q76sP8cnPLgWwebVLIvH-146" value="timestamp" style="shape=partialRectangle;connectable=0;fillColor=none;top=0;left=0;bottom=0;right=0;align=left;spacingLeft=2;overflow=hidden;fontSize=11;" vertex="1" parent="Q76sP8cnPLgWwebVLIvH-145">
          <mxGeometry width="54" height="22" as="geometry">
            <mxRectangle width="54" height="22" as="alternateBounds" />
          </mxGeometry>
        </mxCell>
        <mxCell id="Q76sP8cnPLgWwebVLIvH-147" value="data_criacao" style="shape=partialRectangle;connectable=0;fillColor=none;top=0;left=0;bottom=0;right=0;align=left;spacingLeft=2;overflow=hidden;fontSize=11;" vertex="1" parent="Q76sP8cnPLgWwebVLIvH-145">
          <mxGeometry x="54" width="90" height="22" as="geometry">
            <mxRectangle width="90" height="22" as="alternateBounds" />
          </mxGeometry>
        </mxCell>
        <mxCell id="Q76sP8cnPLgWwebVLIvH-148" value="" style="shape=partialRectangle;connectable=0;fillColor=none;top=0;left=0;bottom=0;right=0;align=left;spacingLeft=2;overflow=hidden;fontSize=11;" vertex="1" parent="Q76sP8cnPLgWwebVLIvH-145">
          <mxGeometry x="144" width="22" height="22" as="geometry">
            <mxRectangle width="22" height="22" as="alternateBounds" />
          </mxGeometry>
        </mxCell>
        <mxCell id="Q76sP8cnPLgWwebVLIvH-149" value="ARQUIVO" style="shape=table;startSize=25;container=1;collapsible=0;childLayout=tableLayout;fixedRows=1;rowLines=1;fontStyle=1;align=center;resizeLast=1;" vertex="1" parent="1">
          <mxGeometry x="298" y="840" width="149" height="157" as="geometry" />
        </mxCell>
        <mxCell id="Q76sP8cnPLgWwebVLIvH-150" style="shape=tableRow;horizontal=0;startSize=0;swimlaneHead=0;swimlaneBody=0;fillColor=none;collapsible=0;dropTarget=0;points=[[0,0.5],[1,0.5]];portConstraint=eastwest;top=0;left=0;right=0;bottom=0;" vertex="1" parent="Q76sP8cnPLgWwebVLIvH-149">
          <mxGeometry y="25" width="149" height="22" as="geometry" />
        </mxCell>
        <mxCell id="Q76sP8cnPLgWwebVLIvH-151" value="int" style="shape=partialRectangle;connectable=0;fillColor=none;top=0;left=0;bottom=0;right=0;align=left;spacingLeft=2;overflow=hidden;fontSize=11;" vertex="1" parent="Q76sP8cnPLgWwebVLIvH-150">
          <mxGeometry width="54" height="22" as="geometry">
            <mxRectangle width="54" height="22" as="alternateBounds" />
          </mxGeometry>
        </mxCell>
        <mxCell id="Q76sP8cnPLgWwebVLIvH-152" value="id" style="shape=partialRectangle;connectable=0;fillColor=none;top=0;left=0;bottom=0;right=0;align=left;spacingLeft=2;overflow=hidden;fontSize=11;" vertex="1" parent="Q76sP8cnPLgWwebVLIvH-150">
          <mxGeometry x="54" width="73" height="22" as="geometry">
            <mxRectangle width="73" height="22" as="alternateBounds" />
          </mxGeometry>
        </mxCell>
        <mxCell id="Q76sP8cnPLgWwebVLIvH-153" value="PK" style="shape=partialRectangle;connectable=0;fillColor=none;top=0;left=0;bottom=0;right=0;align=left;spacingLeft=2;overflow=hidden;fontSize=11;" vertex="1" parent="Q76sP8cnPLgWwebVLIvH-150">
          <mxGeometry x="127" width="22" height="22" as="geometry">
            <mxRectangle width="22" height="22" as="alternateBounds" />
          </mxGeometry>
        </mxCell>
        <mxCell id="Q76sP8cnPLgWwebVLIvH-154" style="shape=tableRow;horizontal=0;startSize=0;swimlaneHead=0;swimlaneBody=0;fillColor=none;collapsible=0;dropTarget=0;points=[[0,0.5],[1,0.5]];portConstraint=eastwest;top=0;left=0;right=0;bottom=0;" vertex="1" parent="Q76sP8cnPLgWwebVLIvH-149">
          <mxGeometry y="47" width="149" height="22" as="geometry" />
        </mxCell>
        <mxCell id="Q76sP8cnPLgWwebVLIvH-155" value="int" style="shape=partialRectangle;connectable=0;fillColor=none;top=0;left=0;bottom=0;right=0;align=left;spacingLeft=2;overflow=hidden;fontSize=11;" vertex="1" parent="Q76sP8cnPLgWwebVLIvH-154">
          <mxGeometry width="54" height="22" as="geometry">
            <mxRectangle width="54" height="22" as="alternateBounds" />
          </mxGeometry>
        </mxCell>
        <mxCell id="Q76sP8cnPLgWwebVLIvH-156" value="nota_id" style="shape=partialRectangle;connectable=0;fillColor=none;top=0;left=0;bottom=0;right=0;align=left;spacingLeft=2;overflow=hidden;fontSize=11;" vertex="1" parent="Q76sP8cnPLgWwebVLIvH-154">
          <mxGeometry x="54" width="73" height="22" as="geometry">
            <mxRectangle width="73" height="22" as="alternateBounds" />
          </mxGeometry>
        </mxCell>
        <mxCell id="Q76sP8cnPLgWwebVLIvH-157" value="FK" style="shape=partialRectangle;connectable=0;fillColor=none;top=0;left=0;bottom=0;right=0;align=left;spacingLeft=2;overflow=hidden;fontSize=11;" vertex="1" parent="Q76sP8cnPLgWwebVLIvH-154">
          <mxGeometry x="127" width="22" height="22" as="geometry">
            <mxRectangle width="22" height="22" as="alternateBounds" />
          </mxGeometry>
        </mxCell>
        <mxCell id="Q76sP8cnPLgWwebVLIvH-158" style="shape=tableRow;horizontal=0;startSize=0;swimlaneHead=0;swimlaneBody=0;fillColor=none;collapsible=0;dropTarget=0;points=[[0,0.5],[1,0.5]];portConstraint=eastwest;top=0;left=0;right=0;bottom=0;" vertex="1" parent="Q76sP8cnPLgWwebVLIvH-149">
          <mxGeometry y="69" width="149" height="22" as="geometry" />
        </mxCell>
        <mxCell id="Q76sP8cnPLgWwebVLIvH-159" value="string" style="shape=partialRectangle;connectable=0;fillColor=none;top=0;left=0;bottom=0;right=0;align=left;spacingLeft=2;overflow=hidden;fontSize=11;" vertex="1" parent="Q76sP8cnPLgWwebVLIvH-158">
          <mxGeometry width="54" height="22" as="geometry">
            <mxRectangle width="54" height="22" as="alternateBounds" />
          </mxGeometry>
        </mxCell>
        <mxCell id="Q76sP8cnPLgWwebVLIvH-160" value="nome" style="shape=partialRectangle;connectable=0;fillColor=none;top=0;left=0;bottom=0;right=0;align=left;spacingLeft=2;overflow=hidden;fontSize=11;" vertex="1" parent="Q76sP8cnPLgWwebVLIvH-158">
          <mxGeometry x="54" width="73" height="22" as="geometry">
            <mxRectangle width="73" height="22" as="alternateBounds" />
          </mxGeometry>
        </mxCell>
        <mxCell id="Q76sP8cnPLgWwebVLIvH-161" value="" style="shape=partialRectangle;connectable=0;fillColor=none;top=0;left=0;bottom=0;right=0;align=left;spacingLeft=2;overflow=hidden;fontSize=11;" vertex="1" parent="Q76sP8cnPLgWwebVLIvH-158">
          <mxGeometry x="127" width="22" height="22" as="geometry">
            <mxRectangle width="22" height="22" as="alternateBounds" />
          </mxGeometry>
        </mxCell>
        <mxCell id="Q76sP8cnPLgWwebVLIvH-162" style="shape=tableRow;horizontal=0;startSize=0;swimlaneHead=0;swimlaneBody=0;fillColor=none;collapsible=0;dropTarget=0;points=[[0,0.5],[1,0.5]];portConstraint=eastwest;top=0;left=0;right=0;bottom=0;" vertex="1" parent="Q76sP8cnPLgWwebVLIvH-149">
          <mxGeometry y="91" width="149" height="22" as="geometry" />
        </mxCell>
        <mxCell id="Q76sP8cnPLgWwebVLIvH-163" value="string" style="shape=partialRectangle;connectable=0;fillColor=none;top=0;left=0;bottom=0;right=0;align=left;spacingLeft=2;overflow=hidden;fontSize=11;" vertex="1" parent="Q76sP8cnPLgWwebVLIvH-162">
          <mxGeometry width="54" height="22" as="geometry">
            <mxRectangle width="54" height="22" as="alternateBounds" />
          </mxGeometry>
        </mxCell>
        <mxCell id="Q76sP8cnPLgWwebVLIvH-164" value="caminho" style="shape=partialRectangle;connectable=0;fillColor=none;top=0;left=0;bottom=0;right=0;align=left;spacingLeft=2;overflow=hidden;fontSize=11;" vertex="1" parent="Q76sP8cnPLgWwebVLIvH-162">
          <mxGeometry x="54" width="73" height="22" as="geometry">
            <mxRectangle width="73" height="22" as="alternateBounds" />
          </mxGeometry>
        </mxCell>
        <mxCell id="Q76sP8cnPLgWwebVLIvH-165" value="" style="shape=partialRectangle;connectable=0;fillColor=none;top=0;left=0;bottom=0;right=0;align=left;spacingLeft=2;overflow=hidden;fontSize=11;" vertex="1" parent="Q76sP8cnPLgWwebVLIvH-162">
          <mxGeometry x="127" width="22" height="22" as="geometry">
            <mxRectangle width="22" height="22" as="alternateBounds" />
          </mxGeometry>
        </mxCell>
        <mxCell id="Q76sP8cnPLgWwebVLIvH-166" style="shape=tableRow;horizontal=0;startSize=0;swimlaneHead=0;swimlaneBody=0;fillColor=none;collapsible=0;dropTarget=0;points=[[0,0.5],[1,0.5]];portConstraint=eastwest;top=0;left=0;right=0;bottom=0;" vertex="1" parent="Q76sP8cnPLgWwebVLIvH-149">
          <mxGeometry y="113" width="149" height="22" as="geometry" />
        </mxCell>
        <mxCell id="Q76sP8cnPLgWwebVLIvH-167" value="string" style="shape=partialRectangle;connectable=0;fillColor=none;top=0;left=0;bottom=0;right=0;align=left;spacingLeft=2;overflow=hidden;fontSize=11;" vertex="1" parent="Q76sP8cnPLgWwebVLIvH-166">
          <mxGeometry width="54" height="22" as="geometry">
            <mxRectangle width="54" height="22" as="alternateBounds" />
          </mxGeometry>
        </mxCell>
        <mxCell id="Q76sP8cnPLgWwebVLIvH-168" value="tipo" style="shape=partialRectangle;connectable=0;fillColor=none;top=0;left=0;bottom=0;right=0;align=left;spacingLeft=2;overflow=hidden;fontSize=11;" vertex="1" parent="Q76sP8cnPLgWwebVLIvH-166">
          <mxGeometry x="54" width="73" height="22" as="geometry">
            <mxRectangle width="73" height="22" as="alternateBounds" />
          </mxGeometry>
        </mxCell>
        <mxCell id="Q76sP8cnPLgWwebVLIvH-169" value="" style="shape=partialRectangle;connectable=0;fillColor=none;top=0;left=0;bottom=0;right=0;align=left;spacingLeft=2;overflow=hidden;fontSize=11;" vertex="1" parent="Q76sP8cnPLgWwebVLIvH-166">
          <mxGeometry x="127" width="22" height="22" as="geometry">
            <mxRectangle width="22" height="22" as="alternateBounds" />
          </mxGeometry>
        </mxCell>
        <mxCell id="Q76sP8cnPLgWwebVLIvH-170" style="shape=tableRow;horizontal=0;startSize=0;swimlaneHead=0;swimlaneBody=0;fillColor=none;collapsible=0;dropTarget=0;points=[[0,0.5],[1,0.5]];portConstraint=eastwest;top=0;left=0;right=0;bottom=0;" vertex="1" parent="Q76sP8cnPLgWwebVLIvH-149">
          <mxGeometry y="135" width="149" height="22" as="geometry" />
        </mxCell>
        <mxCell id="Q76sP8cnPLgWwebVLIvH-171" value="timestamp" style="shape=partialRectangle;connectable=0;fillColor=none;top=0;left=0;bottom=0;right=0;align=left;spacingLeft=2;overflow=hidden;fontSize=11;" vertex="1" parent="Q76sP8cnPLgWwebVLIvH-170">
          <mxGeometry width="54" height="22" as="geometry">
            <mxRectangle width="54" height="22" as="alternateBounds" />
          </mxGeometry>
        </mxCell>
        <mxCell id="Q76sP8cnPLgWwebVLIvH-172" value="data_upload" style="shape=partialRectangle;connectable=0;fillColor=none;top=0;left=0;bottom=0;right=0;align=left;spacingLeft=2;overflow=hidden;fontSize=11;" vertex="1" parent="Q76sP8cnPLgWwebVLIvH-170">
          <mxGeometry x="54" width="73" height="22" as="geometry">
            <mxRectangle width="73" height="22" as="alternateBounds" />
          </mxGeometry>
        </mxCell>
        <mxCell id="Q76sP8cnPLgWwebVLIvH-173" value="" style="shape=partialRectangle;connectable=0;fillColor=none;top=0;left=0;bottom=0;right=0;align=left;spacingLeft=2;overflow=hidden;fontSize=11;" vertex="1" parent="Q76sP8cnPLgWwebVLIvH-170">
          <mxGeometry x="127" width="22" height="22" as="geometry">
            <mxRectangle width="22" height="22" as="alternateBounds" />
          </mxGeometry>
        </mxCell>
        <mxCell id="Q76sP8cnPLgWwebVLIvH-174" value="ESTILO" style="shape=table;startSize=25;container=1;collapsible=0;childLayout=tableLayout;fixedRows=1;rowLines=1;fontStyle=1;align=center;resizeLast=1;" vertex="1" parent="1">
          <mxGeometry x="547" y="851" width="116" height="135" as="geometry" />
        </mxCell>
        <mxCell id="Q76sP8cnPLgWwebVLIvH-175" style="shape=tableRow;horizontal=0;startSize=0;swimlaneHead=0;swimlaneBody=0;fillColor=none;collapsible=0;dropTarget=0;points=[[0,0.5],[1,0.5]];portConstraint=eastwest;top=0;left=0;right=0;bottom=0;" vertex="1" parent="Q76sP8cnPLgWwebVLIvH-174">
          <mxGeometry y="25" width="116" height="22" as="geometry" />
        </mxCell>
        <mxCell id="Q76sP8cnPLgWwebVLIvH-176" value="int" style="shape=partialRectangle;connectable=0;fillColor=none;top=0;left=0;bottom=0;right=0;align=left;spacingLeft=2;overflow=hidden;fontSize=11;" vertex="1" parent="Q76sP8cnPLgWwebVLIvH-175">
          <mxGeometry width="36" height="22" as="geometry">
            <mxRectangle width="36" height="22" as="alternateBounds" />
          </mxGeometry>
        </mxCell>
        <mxCell id="Q76sP8cnPLgWwebVLIvH-177" value="id" style="shape=partialRectangle;connectable=0;fillColor=none;top=0;left=0;bottom=0;right=0;align=left;spacingLeft=2;overflow=hidden;fontSize=11;" vertex="1" parent="Q76sP8cnPLgWwebVLIvH-175">
          <mxGeometry x="36" width="58" height="22" as="geometry">
            <mxRectangle width="58" height="22" as="alternateBounds" />
          </mxGeometry>
        </mxCell>
        <mxCell id="Q76sP8cnPLgWwebVLIvH-178" value="PK" style="shape=partialRectangle;connectable=0;fillColor=none;top=0;left=0;bottom=0;right=0;align=left;spacingLeft=2;overflow=hidden;fontSize=11;" vertex="1" parent="Q76sP8cnPLgWwebVLIvH-175">
          <mxGeometry x="94" width="22" height="22" as="geometry">
            <mxRectangle width="22" height="22" as="alternateBounds" />
          </mxGeometry>
        </mxCell>
        <mxCell id="Q76sP8cnPLgWwebVLIvH-179" style="shape=tableRow;horizontal=0;startSize=0;swimlaneHead=0;swimlaneBody=0;fillColor=none;collapsible=0;dropTarget=0;points=[[0,0.5],[1,0.5]];portConstraint=eastwest;top=0;left=0;right=0;bottom=0;" vertex="1" parent="Q76sP8cnPLgWwebVLIvH-174">
          <mxGeometry y="47" width="116" height="22" as="geometry" />
        </mxCell>
        <mxCell id="Q76sP8cnPLgWwebVLIvH-180" value="int" style="shape=partialRectangle;connectable=0;fillColor=none;top=0;left=0;bottom=0;right=0;align=left;spacingLeft=2;overflow=hidden;fontSize=11;" vertex="1" parent="Q76sP8cnPLgWwebVLIvH-179">
          <mxGeometry width="36" height="22" as="geometry">
            <mxRectangle width="36" height="22" as="alternateBounds" />
          </mxGeometry>
        </mxCell>
        <mxCell id="Q76sP8cnPLgWwebVLIvH-181" value="nota_id" style="shape=partialRectangle;connectable=0;fillColor=none;top=0;left=0;bottom=0;right=0;align=left;spacingLeft=2;overflow=hidden;fontSize=11;" vertex="1" parent="Q76sP8cnPLgWwebVLIvH-179">
          <mxGeometry x="36" width="58" height="22" as="geometry">
            <mxRectangle width="58" height="22" as="alternateBounds" />
          </mxGeometry>
        </mxCell>
        <mxCell id="Q76sP8cnPLgWwebVLIvH-182" value="FK" style="shape=partialRectangle;connectable=0;fillColor=none;top=0;left=0;bottom=0;right=0;align=left;spacingLeft=2;overflow=hidden;fontSize=11;" vertex="1" parent="Q76sP8cnPLgWwebVLIvH-179">
          <mxGeometry x="94" width="22" height="22" as="geometry">
            <mxRectangle width="22" height="22" as="alternateBounds" />
          </mxGeometry>
        </mxCell>
        <mxCell id="Q76sP8cnPLgWwebVLIvH-183" style="shape=tableRow;horizontal=0;startSize=0;swimlaneHead=0;swimlaneBody=0;fillColor=none;collapsible=0;dropTarget=0;points=[[0,0.5],[1,0.5]];portConstraint=eastwest;top=0;left=0;right=0;bottom=0;" vertex="1" parent="Q76sP8cnPLgWwebVLIvH-174">
          <mxGeometry y="69" width="116" height="22" as="geometry" />
        </mxCell>
        <mxCell id="Q76sP8cnPLgWwebVLIvH-184" value="string" style="shape=partialRectangle;connectable=0;fillColor=none;top=0;left=0;bottom=0;right=0;align=left;spacingLeft=2;overflow=hidden;fontSize=11;" vertex="1" parent="Q76sP8cnPLgWwebVLIvH-183">
          <mxGeometry width="36" height="22" as="geometry">
            <mxRectangle width="36" height="22" as="alternateBounds" />
          </mxGeometry>
        </mxCell>
        <mxCell id="Q76sP8cnPLgWwebVLIvH-185" value="cor_fundo" style="shape=partialRectangle;connectable=0;fillColor=none;top=0;left=0;bottom=0;right=0;align=left;spacingLeft=2;overflow=hidden;fontSize=11;" vertex="1" parent="Q76sP8cnPLgWwebVLIvH-183">
          <mxGeometry x="36" width="58" height="22" as="geometry">
            <mxRectangle width="58" height="22" as="alternateBounds" />
          </mxGeometry>
        </mxCell>
        <mxCell id="Q76sP8cnPLgWwebVLIvH-186" value="" style="shape=partialRectangle;connectable=0;fillColor=none;top=0;left=0;bottom=0;right=0;align=left;spacingLeft=2;overflow=hidden;fontSize=11;" vertex="1" parent="Q76sP8cnPLgWwebVLIvH-183">
          <mxGeometry x="94" width="22" height="22" as="geometry">
            <mxRectangle width="22" height="22" as="alternateBounds" />
          </mxGeometry>
        </mxCell>
        <mxCell id="Q76sP8cnPLgWwebVLIvH-187" style="shape=tableRow;horizontal=0;startSize=0;swimlaneHead=0;swimlaneBody=0;fillColor=none;collapsible=0;dropTarget=0;points=[[0,0.5],[1,0.5]];portConstraint=eastwest;top=0;left=0;right=0;bottom=0;" vertex="1" parent="Q76sP8cnPLgWwebVLIvH-174">
          <mxGeometry y="91" width="116" height="22" as="geometry" />
        </mxCell>
        <mxCell id="Q76sP8cnPLgWwebVLIvH-188" value="string" style="shape=partialRectangle;connectable=0;fillColor=none;top=0;left=0;bottom=0;right=0;align=left;spacingLeft=2;overflow=hidden;fontSize=11;" vertex="1" parent="Q76sP8cnPLgWwebVLIvH-187">
          <mxGeometry width="36" height="22" as="geometry">
            <mxRectangle width="36" height="22" as="alternateBounds" />
          </mxGeometry>
        </mxCell>
        <mxCell id="Q76sP8cnPLgWwebVLIvH-189" value="cor_texto" style="shape=partialRectangle;connectable=0;fillColor=none;top=0;left=0;bottom=0;right=0;align=left;spacingLeft=2;overflow=hidden;fontSize=11;" vertex="1" parent="Q76sP8cnPLgWwebVLIvH-187">
          <mxGeometry x="36" width="58" height="22" as="geometry">
            <mxRectangle width="58" height="22" as="alternateBounds" />
          </mxGeometry>
        </mxCell>
        <mxCell id="Q76sP8cnPLgWwebVLIvH-190" value="" style="shape=partialRectangle;connectable=0;fillColor=none;top=0;left=0;bottom=0;right=0;align=left;spacingLeft=2;overflow=hidden;fontSize=11;" vertex="1" parent="Q76sP8cnPLgWwebVLIvH-187">
          <mxGeometry x="94" width="22" height="22" as="geometry">
            <mxRectangle width="22" height="22" as="alternateBounds" />
          </mxGeometry>
        </mxCell>
        <mxCell id="Q76sP8cnPLgWwebVLIvH-191" style="shape=tableRow;horizontal=0;startSize=0;swimlaneHead=0;swimlaneBody=0;fillColor=none;collapsible=0;dropTarget=0;points=[[0,0.5],[1,0.5]];portConstraint=eastwest;top=0;left=0;right=0;bottom=0;" vertex="1" parent="Q76sP8cnPLgWwebVLIvH-174">
          <mxGeometry y="113" width="116" height="22" as="geometry" />
        </mxCell>
        <mxCell id="Q76sP8cnPLgWwebVLIvH-192" value="string" style="shape=partialRectangle;connectable=0;fillColor=none;top=0;left=0;bottom=0;right=0;align=left;spacingLeft=2;overflow=hidden;fontSize=11;" vertex="1" parent="Q76sP8cnPLgWwebVLIvH-191">
          <mxGeometry width="36" height="22" as="geometry">
            <mxRectangle width="36" height="22" as="alternateBounds" />
          </mxGeometry>
        </mxCell>
        <mxCell id="Q76sP8cnPLgWwebVLIvH-193" value="fonte" style="shape=partialRectangle;connectable=0;fillColor=none;top=0;left=0;bottom=0;right=0;align=left;spacingLeft=2;overflow=hidden;fontSize=11;" vertex="1" parent="Q76sP8cnPLgWwebVLIvH-191">
          <mxGeometry x="36" width="58" height="22" as="geometry">
            <mxRectangle width="58" height="22" as="alternateBounds" />
          </mxGeometry>
        </mxCell>
        <mxCell id="Q76sP8cnPLgWwebVLIvH-194" value="" style="shape=partialRectangle;connectable=0;fillColor=none;top=0;left=0;bottom=0;right=0;align=left;spacingLeft=2;overflow=hidden;fontSize=11;" vertex="1" parent="Q76sP8cnPLgWwebVLIvH-191">
          <mxGeometry x="94" width="22" height="22" as="geometry">
            <mxRectangle width="22" height="22" as="alternateBounds" />
          </mxGeometry>
        </mxCell>
        <mxCell id="Q76sP8cnPLgWwebVLIvH-195" value="cria/edita/exclui" style="curved=1;startArrow=ERmandOne;startSize=10;;endArrow=ERzeroToMany;endSize=10;;exitX=0.98;exitY=0.91;entryX=0.49;entryY=0;rounded=0;" edge="1" parent="1" source="Q76sP8cnPLgWwebVLIvH-1" target="Q76sP8cnPLgWwebVLIvH-87">
          <mxGeometry relative="1" as="geometry">
            <Array as="points">
              <mxPoint x="373" y="446" />
            </Array>
          </mxGeometry>
        </mxCell>
        <mxCell id="Q76sP8cnPLgWwebVLIvH-196" value="possui" style="curved=1;startArrow=ERmandOne;startSize=10;;endArrow=ERzeroToMany;endSize=10;;exitX=0;exitY=0.91;entryX=0.5;entryY=0;rounded=0;" edge="1" parent="1" source="Q76sP8cnPLgWwebVLIvH-1" target="Q76sP8cnPLgWwebVLIvH-66">
          <mxGeometry relative="1" as="geometry">
            <Array as="points">
              <mxPoint x="104" y="446" />
            </Array>
          </mxGeometry>
        </mxCell>
        <mxCell id="Q76sP8cnPLgWwebVLIvH-197" value="possui vínculos" style="curved=1;startArrow=ERmandOne;startSize=10;;endArrow=ERzeroToMany;endSize=10;;exitX=0;exitY=0.73;entryX=0.5;entryY=0;rounded=0;" edge="1" parent="1" source="Q76sP8cnPLgWwebVLIvH-87" target="Q76sP8cnPLgWwebVLIvH-128">
          <mxGeometry relative="1" as="geometry">
            <Array as="points">
              <mxPoint x="116" y="790" />
            </Array>
          </mxGeometry>
        </mxCell>
        <mxCell id="Q76sP8cnPLgWwebVLIvH-198" value="possui arquivos" style="curved=1;startArrow=ERmandOne;startSize=10;;endArrow=ERzeroToMany;endSize=10;;exitX=0.49;exitY=1;entryX=0.5;entryY=0;rounded=0;" edge="1" parent="1" source="Q76sP8cnPLgWwebVLIvH-87" target="Q76sP8cnPLgWwebVLIvH-149">
          <mxGeometry relative="1" as="geometry">
            <Array as="points" />
          </mxGeometry>
        </mxCell>
        <mxCell id="Q76sP8cnPLgWwebVLIvH-199" value="tem estilos" style="curved=1;startArrow=ERmandOne;startSize=10;;endArrow=ERzeroToMany;endSize=10;;exitX=0.99;exitY=0.76;entryX=0.5;entryY=0;rounded=0;" edge="1" parent="1" source="Q76sP8cnPLgWwebVLIvH-87" target="Q76sP8cnPLgWwebVLIvH-174">
          <mxGeometry relative="1" as="geometry">
            <Array as="points">
              <mxPoint x="605" y="790" />
            </Array>
          </mxGeometry>
        </mxCell>
      </root>
    </mxGraphModel>
  </diagram>
</mxfile>
